
[b][color=red]Source: NEWCAM XViD-MATiNE

Resized, messed with gamma, bright, contrast, levels and sharpen, audio is nice for cam.
 
http://www.imdb.com/title/tt1308729

After watching their respective partners die, a New Orleans hitman and a Washington D.C. detective form an alliance in order to bring down their common enemy.

General
Complete name                            : Bullet To The Head 2012 CAM x264 AAC-OFFLiNE.mp4
Format                                   : MPEG-4
Format profile                           : Base Media
Codec ID                                 : isom
File size                                : 1.41 GiB
Duration                                 : 1h 26mn
Overall bit rate mode                    : Variable
Overall bit rate                         : 2 343 Kbps
Encoded date                             : UTC 2013-02-18 05:20:25
Tagged date                              : UTC 2013-02-18 05:20:25

Video
ID                                       : 1
Format                                   : AVC
Format/Info                              : Advanced Video Codec
Format profile                           : High@L4.1
Format settings, CABAC                   : Yes
Format settings, ReFrames                : 3 frames
Codec ID                                 : avc1
Codec ID/Info                            : Advanced Video Coding
Duration                                 : 1h 26mn
Bit rate mode                            : Variable
Bit rate                                 : 2 273 Kbps
Maximum bit rate                         : 40.0 Mbps
Width                                    : 704 pixels
Height                                   : 372 pixels
Display aspect ratio                     : 1.892
Frame rate mode                          : Constant
Frame rate                               : 29.970 fps
Color space                              : YUV
Chroma subsampling                       : 4:2:0
Bit depth                                : 8 bits
Scan type                                : Progressive
Bits/(Pixel*Frame)                       : 0.290
Stream size                              : 1.37 GiB (97%)
Writing library                          : x264 core 129 r2245 bc13772

Audio
ID                                       : 2
Format                                   : AAC
Format/Info                              : Advanced Audio Codec
Format profile                           : LC
Codec ID                                 : 40
Duration                                 : 1h 26mn
Bit rate mode                            : Variable
Bit rate                                 : 66.2 Kbps
Maximum bit rate                         : 72.2 Kbps
Channel(s)                               : 1 channel
Channel positions                        : Front: C
Sampling rate                            : 44.1 KHz
Compression mode                         : Lossy
Stream size                              : 40.5 MiB (3%)
Language                                 : English
Encoded date                             : UTC 2013-02-17 23:29:53
Tagged date                              : UTC 2013-02-18 05:21:09[/color][/b]
[img]http://lookpic.com/O/i2/1267/CcygM4F.png[/img]
[img]http://lookpic.com/O/i2/727/zksAEs42.png[/img]
[img]http://lookpic.com/O/i2/1535/NrCeHECn.png[/img]
[img]http://lookpic.com/O/i2/243/WcRofpuC.png[/img]